<svg width="182" height="75" viewBox="0 0 182 75" fill="none" xmlns="http://www.w3.org/2000/svg">
<g filter="url(#filter0_diiii_1_28)">
<rect x="7" y="6" width="168" height="60" rx="30" fill="#0C0C0C" shape-rendering="crispEdges"/>
<path d="M48.3968 42.288C47.6288 42.288 46.9448 42.102 46.3448 41.73C45.7568 41.358 45.2948 40.836 44.9588 40.164C44.6228 39.492 44.4488 38.712 44.4368 37.824L45.6968 37.734C45.7208 38.814 45.9668 39.642 46.4348 40.218C46.9148 40.794 47.5688 41.082 48.3968 41.082C49.2728 41.082 49.9508 40.782 50.4308 40.182C50.9228 39.57 51.1688 38.688 51.1688 37.536V29.22H52.3928V37.536C52.3928 38.532 52.2248 39.384 51.8888 40.092C51.5648 40.8 51.1028 41.346 50.5028 41.73C49.9148 42.102 49.2128 42.288 48.3968 42.288ZM58.7088 42.216C57.8448 42.216 57.0888 42.012 56.4408 41.604C55.8048 41.196 55.3128 40.62 54.9648 39.876C54.6168 39.12 54.4428 38.238 54.4428 37.23C54.4428 36.21 54.6168 35.328 54.9648 34.584C55.3128 33.84 55.8048 33.264 56.4408 32.856C57.0888 32.448 57.8448 32.244 58.7088 32.244C59.5728 32.244 60.3228 32.448 60.9588 32.856C61.5948 33.264 62.0868 33.84 62.4348 34.584C62.7828 35.328 62.9568 36.21 62.9568 37.23C62.9568 38.238 62.7828 39.12 62.4348 39.876C62.0868 40.62 61.5948 41.196 60.9588 41.604C60.3228 42.012 59.5728 42.216 58.7088 42.216ZM58.7088 41.082C59.6448 41.082 60.3768 40.74 60.9048 40.056C61.4448 39.36 61.7148 38.418 61.7148 37.23C61.7148 36.042 61.4448 35.106 60.9048 34.422C60.3768 33.726 59.6448 33.378 58.7088 33.378C57.7728 33.378 57.0348 33.726 56.4948 34.422C55.9548 35.106 55.6848 36.042 55.6848 37.23C55.6848 38.418 55.9548 39.36 56.4948 40.056C57.0348 40.74 57.7728 41.082 58.7088 41.082ZM64.9128 42V32.46H66.1008V42H64.9128ZM64.8768 30.876V29.274H66.1368V30.876H64.8768ZM69.0219 42V32.46H70.1019L70.1559 34.962L70.0119 34.854C70.1079 34.266 70.3059 33.78 70.6059 33.396C70.9179 33.012 71.2959 32.724 71.7399 32.532C72.1839 32.34 72.6639 32.244 73.1799 32.244C73.9119 32.244 74.5119 32.406 74.9799 32.73C75.4599 33.054 75.8139 33.492 76.0419 34.044C76.2699 34.584 76.3839 35.19 76.3839 35.862V42H75.1959V36.294C75.1959 35.67 75.1179 35.136 74.9619 34.692C74.8179 34.248 74.5779 33.906 74.2419 33.666C73.9059 33.426 73.4679 33.306 72.9279 33.306C72.1119 33.306 71.4519 33.57 70.9479 34.098C70.4559 34.626 70.2099 35.358 70.2099 36.294V42H69.0219ZM85.4602 42L82.4182 32.46H83.7142L86.1802 40.758L88.6102 32.46H89.8702L92.3002 40.758L94.7842 32.46H96.0802L93.0382 42H91.5622L89.2402 34.26L86.9362 42H85.4602ZM99.9179 42.216C98.9579 42.216 98.1899 41.988 97.6139 41.532C97.0379 41.064 96.7499 40.434 96.7499 39.642C96.7499 38.85 97.0019 38.226 97.5059 37.77C98.0099 37.314 98.7479 36.996 99.7199 36.816L103.248 36.15C103.248 35.202 103.044 34.506 102.636 34.062C102.228 33.606 101.61 33.378 100.782 33.378C100.05 33.378 99.4679 33.552 99.0359 33.9C98.6039 34.248 98.3159 34.74 98.1719 35.376L96.9119 35.268C97.0919 34.344 97.5119 33.612 98.1719 33.072C98.8439 32.52 99.7139 32.244 100.782 32.244C101.97 32.244 102.876 32.58 103.5 33.252C104.124 33.924 104.436 34.884 104.436 36.132V40.11C104.436 40.434 104.484 40.656 104.58 40.776C104.688 40.884 104.856 40.938 105.084 40.938H105.372V42C105.324 42.012 105.252 42.018 105.156 42.018C105.072 42.03 104.982 42.036 104.886 42.036C104.514 42.036 104.202 41.97 103.95 41.838C103.71 41.706 103.53 41.49 103.41 41.19C103.302 40.89 103.248 40.476 103.248 39.948L103.392 39.966C103.284 40.386 103.062 40.77 102.726 41.118C102.402 41.454 101.994 41.724 101.502 41.928C101.01 42.12 100.482 42.216 99.9179 42.216ZM100.026 41.154C100.686 41.154 101.256 41.022 101.736 40.758C102.216 40.494 102.588 40.14 102.852 39.696C103.116 39.24 103.248 38.73 103.248 38.166V37.212L99.9719 37.824C99.2879 37.956 98.7839 38.16 98.4599 38.436C98.1479 38.712 97.9919 39.078 97.9919 39.534C97.9919 40.05 98.1719 40.452 98.5319 40.74C98.8919 41.016 99.3899 41.154 100.026 41.154ZM106.921 42V32.46H108.109V42H106.921ZM106.885 30.876V29.274H108.145V30.876H106.885ZM113.516 42C112.736 42 112.16 41.82 111.788 41.46C111.416 41.088 111.23 40.524 111.23 39.768V30.228H112.418V39.732C112.418 40.176 112.514 40.488 112.706 40.668C112.91 40.848 113.216 40.938 113.624 40.938H114.884V42H113.516ZM109.736 33.522V32.46H114.884V33.522H109.736ZM118.573 42C118.033 42 117.607 41.868 117.295 41.604C116.983 41.328 116.827 40.902 116.827 40.326V29.22H118.015V40.236C118.015 40.464 118.075 40.638 118.195 40.758C118.315 40.878 118.495 40.938 118.735 40.938H119.491V42H118.573ZM121.129 42V32.46H122.317V42H121.129ZM121.093 30.876V29.274H122.353V30.876H121.093ZM128.271 42.216C127.443 42.216 126.735 42.084 126.147 41.82C125.571 41.544 125.121 41.166 124.797 40.686C124.473 40.206 124.287 39.666 124.239 39.066L125.481 38.976C125.553 39.612 125.817 40.122 126.273 40.506C126.741 40.89 127.407 41.082 128.271 41.082C129.027 41.082 129.615 40.956 130.035 40.704C130.455 40.452 130.665 40.062 130.665 39.534C130.665 39.246 130.599 39.006 130.467 38.814C130.347 38.61 130.095 38.436 129.711 38.292C129.327 38.136 128.751 37.992 127.983 37.86C127.083 37.692 126.381 37.494 125.877 37.266C125.373 37.026 125.019 36.732 124.815 36.384C124.611 36.024 124.509 35.598 124.509 35.106C124.509 34.254 124.815 33.564 125.427 33.036C126.039 32.508 126.891 32.244 127.983 32.244C128.727 32.244 129.357 32.382 129.873 32.658C130.401 32.934 130.815 33.3 131.115 33.756C131.415 34.2 131.613 34.692 131.709 35.232L130.467 35.34C130.395 34.968 130.257 34.638 130.053 34.35C129.849 34.05 129.573 33.816 129.225 33.648C128.877 33.468 128.457 33.378 127.965 33.378C127.245 33.378 126.693 33.534 126.309 33.846C125.937 34.146 125.751 34.548 125.751 35.052C125.751 35.4 125.829 35.688 125.985 35.916C126.141 36.132 126.399 36.312 126.759 36.456C127.119 36.588 127.617 36.708 128.253 36.816C129.201 36.972 129.939 37.17 130.467 37.41C131.007 37.638 131.385 37.926 131.601 38.274C131.817 38.61 131.925 39.024 131.925 39.516C131.925 40.092 131.769 40.584 131.457 40.992C131.145 41.388 130.713 41.694 130.161 41.91C129.621 42.114 128.991 42.216 128.271 42.216ZM136.773 42C135.993 42 135.417 41.82 135.045 41.46C134.673 41.088 134.487 40.524 134.487 39.768V30.228H135.675V39.732C135.675 40.176 135.771 40.488 135.963 40.668C136.167 40.848 136.473 40.938 136.881 40.938H138.141V42H136.773ZM132.993 33.522V32.46H138.141V33.522H132.993Z" fill="#B3B3B3"/>
</g>
<defs>
<filter id="filter0_diiii_1_28" x="0.179687" y="0.853383" width="181.641" height="73.6406" filterUnits="userSpaceOnUse" color-interpolation-filters="sRGB">
<feFlood flood-opacity="0" result="BackgroundImageFix"/>
<feColorMatrix in="SourceAlpha" type="matrix" values="0 0 0 0 0 0 0 0 0 0 0 0 0 0 0 0 0 0 127 0" result="hardAlpha"/>
<feOffset dy="1.6737"/>
<feGaussianBlur stdDeviation="3.41016"/>
<feComposite in2="hardAlpha" operator="out"/>
<feColorMatrix type="matrix" values="0 0 0 0 0.961717 0 0 0 0 0.564821 0 0 0 0 0.228562 0 0 0 1 0"/>
<feBlend mode="normal" in2="BackgroundImageFix" result="effect1_dropShadow_1_28"/>
<feBlend mode="normal" in="SourceGraphic" in2="effect1_dropShadow_1_28" result="shape"/>
<feColorMatrix in="SourceAlpha" type="matrix" values="0 0 0 0 0 0 0 0 0 0 0 0 0 0 0 0 0 0 127 0" result="hardAlpha"/>
<feOffset/>
<feGaussianBlur stdDeviation="9.06586"/>
<feComposite in2="hardAlpha" operator="arithmetic" k2="-1" k3="1"/>
<feColorMatrix type="matrix" values="0 0 0 0 0.960784 0 0 0 0 0.564706 0 0 0 0 0.227451 0 0 0 1 0"/>
<feBlend mode="normal" in2="shape" result="effect2_innerShadow_1_28"/>
<feColorMatrix in="SourceAlpha" type="matrix" values="0 0 0 0 0 0 0 0 0 0 0 0 0 0 0 0 0 0 127 0" result="hardAlpha"/>
<feOffset dy="0.836848"/>
<feGaussianBlur stdDeviation="0.278949"/>
<feComposite in2="hardAlpha" operator="arithmetic" k2="-1" k3="1"/>
<feColorMatrix type="matrix" values="0 0 0 0 1 0 0 0 0 0.780146 0 0 0 0 0.593881 0 0 0 1 0"/>
<feBlend mode="normal" in2="effect2_innerShadow_1_28" result="effect3_innerShadow_1_28"/>
<feColorMatrix in="SourceAlpha" type="matrix" values="0 0 0 0 0 0 0 0 0 0 0 0 0 0 0 0 0 0 127 0" result="hardAlpha"/>
<feOffset dy="1.1158"/>
<feGaussianBlur stdDeviation="0.906586"/>
<feComposite in2="hardAlpha" operator="arithmetic" k2="-1" k3="1"/>
<feColorMatrix type="matrix" values="0 0 0 0 1 0 0 0 0 0.780392 0 0 0 0 0.592157 0 0 0 1 0"/>
<feBlend mode="normal" in2="effect3_innerShadow_1_28" result="effect4_innerShadow_1_28"/>
<feColorMatrix in="SourceAlpha" type="matrix" values="0 0 0 0 0 0 0 0 0 0 0 0 0 0 0 0 0 0 127 0" result="hardAlpha"/>
<feOffset dy="1.1158"/>
<feGaussianBlur stdDeviation="1.1158"/>
<feComposite in2="hardAlpha" operator="arithmetic" k2="-1" k3="1"/>
<feColorMatrix type="matrix" values="0 0 0 0 1 0 0 0 0 0.975902 0 0 0 0 0.955247 0 0 0 1 0"/>
<feBlend mode="normal" in2="effect4_innerShadow_1_28" result="effect5_innerShadow_1_28"/>
</filter>
</defs>
</svg>
